<svg xmlns="http://www.w3.org/2000/svg" version="1.1" xmlns:xlink="http://www.w3.org/1999/xlink" width="512" height="512" x="0" y="0" viewBox="0 0 464 463" style="enable-background:new 0 0 512 512" xml:space="preserve"><g><path d="M304 .5h16v16h-16zM224 56.5h16v-40h48V.5h-64v16h-56v16h56zM182.824 152.973c14.457 4.52 30.848 7.527 49.176 7.527 18.344 0 34.754-3.016 49.207-7.535-12.305-49.61-38.094-81.36-49.191-93.16-11.078 11.832-36.864 43.672-49.192 93.168zM182.777 264.043c5.04 20.344 12.2 37.387 19.293 50.746 4.176-1.832 8.211-3.984 11.875-6.73L232 294.5l18.07 13.55c3.657 2.747 7.692 4.907 11.86 6.74 7.093-13.36 14.254-30.411 19.293-50.747-14.461-4.527-30.871-7.543-49.223-7.543s-34.762 3.016-49.223 7.543zM288 208.5c0-14.207-1.344-27.375-3.48-39.71-15.473 4.64-32.934 7.71-52.52 7.71-19.574 0-37.031-3.07-52.504-7.703C177.352 181.133 176 194.309 176 208.5c0 14.246 1.344 27.434 3.473 39.71 15.472-4.64 32.941-7.71 52.527-7.71s37.055 3.07 52.527 7.71c2.13-12.276 3.473-25.464 3.473-39.71zM104.922 291.844c9.863-9.719 29.832-26.617 59.277-38.39-2.543-13.84-4.199-28.747-4.199-44.954 0-16.184 1.61-31.09 4.129-44.977-29.344-11.75-49.258-28.574-59.137-38.296-8.648 13.152-15.25 27.738-19.52 43.28H32v16h49.953C80.695 192.325 80 200.325 80 208.5c0 5.39.383 10.71.945 16H32v16h51.441c3.965 18.375 11.254 35.77 21.48 51.344zM359.008 125.219c-9.88 9.722-29.801 26.554-59.137 38.297 2.52 13.894 4.129 28.8 4.129 44.984 0 16.207-1.656 31.113-4.2 44.953 29.446 11.774 49.415 28.672 59.278 38.39a151.697 151.697 0 0 0 21.48-51.343H432v-16h-48.945c.562-5.29.945-10.61.945-16 0-8.176-.695-16.176-1.953-24H432v-16h-53.473c-4.27-15.535-10.87-30.129-19.52-43.281zm0 0" fill="#000000" opacity="1" data-original="#000000"></path><path d="M240.473 320.852 232 314.5l-8.465 6.352c-20.152 15.097-47.633 19.543-71.535 11.68v6.671c0 49.824 26.535 96.688 69.258 122.32 6.484 3.887 15.008 3.887 21.476 0h.008C285.465 435.891 312 389.02 312 339.203v-6.672c-23.922 7.864-51.406 3.418-71.527-11.68zM224 435.812l-29.656-29.656 11.312-11.312L224 413.188l58.344-58.344 11.312 11.312zm0 0" fill="#000000" opacity="1" data-original="#000000"></path><path d="M186.426 319.348c-6.914-13.48-13.723-30.192-18.73-49.801-27.262 11.52-45.423 27.586-53.176 35.394 1.359 1.657 2.906 3.168 4.335 4.758L77.105 344.5H32v16h50.895l47.32-39.434c1.93 1.739 3.762 3.555 5.785 5.204v-18.762l12.762 6.426c11.558 5.78 24.902 7.421 37.664 5.414zM118.895 107.332c-1.43 1.602-2.95 3.121-4.32 4.785 7.777 7.817 25.89 23.809 53.034 35.293 10.832-42.75 30.88-72.812 44.672-89.476-31.37 4.093-59.672 17.804-82.05 38.007L82.894 56.5H32v16h45.105zM0 56.5h16v16H0zM0 224.5h16v16H0zM0 168.5h16v16H0zM333.77 95.941c-22.372-20.203-50.68-33.921-82.051-38.007 13.793 16.664 33.847 46.726 44.672 89.476 27.144-11.484 45.257-27.476 53.035-35.293-1.371-1.664-2.89-3.183-4.32-4.785L386.894 72.5H432v-16h-50.895zM448 56.5h16v16h-16zM345.145 309.7c1.43-1.598 2.976-3.102 4.335-4.759-7.753-7.808-25.914-23.875-53.175-35.394-5.008 19.61-11.817 36.32-18.73 49.8 12.76 2.008 26.112.368 37.69-5.413L328 307.516v18.761c2.023-1.648 3.855-3.465 5.785-5.203l47.32 39.426H432v-16h-45.105zM448 344.5h16v16h-16zM0 344.5h16v16H0zM448 224.5h16v16h-16zM448 168.5h16v16h-16zM136 16.5h16v16h-16zm0 0" fill="#000000" opacity="1" data-original="#000000"></path></g></svg>