<svg xmlns="http://www.w3.org/2000/svg" version="1.1" xmlns:xlink="http://www.w3.org/1999/xlink" width="512" height="512" x="0" y="0" viewBox="0 0 64 64" style="enable-background:new 0 0 512 512" xml:space="preserve" class=""><g><g data-name="Local Area Network"><path d="M6 51.099h24v1a2.006 2.006 0 0 1-2 2H8a2.006 2.006 0 0 1-2-2zM23 58.099h-2v-2h-6v2h-2a1 1 0 0 0 0 2h10a1 1 0 0 0 0-2zM34 51.099h24v1a2.006 2.006 0 0 1-2 2H36a2.006 2.006 0 0 1-2-2zM51 58.099h-2v-2h-6v2h-2a1 1 0 0 0 0 2h10a1 1 0 0 0 0-2zM44 5.901v11H20v-11a2.006 2.006 0 0 1 2-2h20a2.006 2.006 0 0 1 2 2zM20 18.901h24v1a2.006 2.006 0 0 1-2 2H22a2.006 2.006 0 0 1-2-2zM56 36.099h-9v-2.261a1.971 1.971 0 0 0-2-1.937H33v-4h4a1 1 0 0 0 0-2h-2v-2h-6v2h-2a1 1 0 0 0 0 2h4v4H19a1.971 1.971 0 0 0-2 1.937v2.26H8a2.006 2.006 0 0 0-2 2v11h24v-11a2.006 2.006 0 0 0-2-2h-9v-2.197h13l13-.063v2.26h-9a2.006 2.006 0 0 0-2 2v11h24v-11a2.006 2.006 0 0 0-2-2z" fill="#000000" opacity="1" data-original="#000000" class=""></path></g></g></svg>