<svg xmlns="http://www.w3.org/2000/svg" viewBox="8 8 496.0009765625 496"><g><path d="M224.557 329.007c0-12.913-10.505-23.418-23.418-23.418H31.418C18.505 305.589 8 316.094 8 329.007v106.068c0 12.913 10.505 23.418 23.418 23.418h45.344v8.496H61.294c-11.661 0-21.148 8.302-21.148 18.505V496a8 8 0 0 0 8 8h136.266a8 8 0 0 0 8-8v-10.506c0-10.203-9.487-18.505-21.148-18.505h-15.469v-8.496h45.345c12.913 0 23.418-10.505 23.418-23.418V329.007zm-193.139-7.418h169.721c4.09 0 7.418 3.328 7.418 7.418v87.516H24v-87.516c0-4.09 3.328-7.418 7.418-7.418zm144.993 163.905V488H56.146v-2.506c0-.644 1.771-2.505 5.148-2.505h109.969c3.378 0 5.148 1.862 5.148 2.505zm-36.617-18.505H92.762v-8.496h47.032zm61.345-24.496H31.418c-4.09 0-7.418-3.328-7.418-7.418v-2.553h184.557v2.553c0 4.09-3.328 7.418-7.418 7.418zm279.443-136.904H310.861c-12.913 0-23.418 10.505-23.418 23.418v106.068c0 12.913 10.505 23.418 23.418 23.418h45.345v8.496h-15.469c-11.661 0-21.148 8.302-21.148 18.505V496a8 8 0 0 0 8 8h136.266a8 8 0 0 0 8-8v-10.506c0-10.203-9.487-18.505-21.148-18.505h-15.468v-8.496h45.344c12.913 0 23.418-10.505 23.418-23.418V329.007c-.001-12.913-10.506-23.418-23.419-23.418zm-169.721 16h169.721c4.09 0 7.418 3.328 7.418 7.418v87.516H303.443v-87.516c0-4.09 3.328-7.418 7.418-7.418zm144.993 163.905V488H335.589v-2.506c0-.644 1.771-2.505 5.148-2.505h109.969c3.378 0 5.148 1.862 5.148 2.505zm-36.616-18.505h-47.032v-8.496h47.032zm61.344-24.496H310.861c-4.09 0-7.418-3.328-7.418-7.418v-2.553H488v2.553c0 4.09-3.328 7.418-7.418 7.418zM171.14 160.904h45.345v8.496h-15.469c-11.661 0-21.148 8.301-21.148 18.505v10.505a8 8 0 0 0 8 8h136.266a8 8 0 0 0 8-8v-10.505c0-10.204-9.487-18.505-21.148-18.505h-15.469v-8.496h45.345c12.913 0 23.418-10.505 23.418-23.418V31.418C364.278 18.505 353.773 8 340.86 8H171.14c-12.913 0-23.418 10.505-23.418 23.418v106.068c0 12.913 10.505 23.418 23.418 23.418zm144.993 27.001v2.505H195.867v-2.505c0-.644 1.771-2.505 5.148-2.505h109.969c3.378 0 5.149 1.861 5.149 2.505zM279.516 169.4h-47.031v-8.496h47.031zm61.344-24.496H171.14c-4.09 0-7.418-3.328-7.418-7.418v-2.553h184.557v2.553c-.001 4.091-3.329 7.418-7.419 7.418zM171.14 24h169.72c4.09 0 7.418 3.328 7.418 7.418v87.515H163.722V31.418c0-4.09 3.328-7.418 7.418-7.418zm192.623 154.056 58.681 99.47a8 8 0 1 1-13.781 8.128l-58.681-99.469a8.001 8.001 0 0 1 13.781-8.129zm-70.471 296.933a8 8 0 0 1-8 8h-58.584a8 8 0 0 1 0-16h58.584a8 8 0 0 1 8 8zM89.558 277.525l58.681-99.47a7.998 7.998 0 0 1 10.955-2.825 8 8 0 0 1 2.826 10.955l-58.681 99.469a7.998 7.998 0 0 1-10.955 2.827 8 8 0 0 1-2.826-10.956z" fill="#000000" opacity="1" data-original="#000000"></path></g></svg>