<svg xmlns="http://www.w3.org/2000/svg" version="1.1" xmlns:xlink="http://www.w3.org/1999/xlink" width="512" height="512" x="0" y="0" viewBox="0 0 68 68" style="enable-background:new 0 0 512 512" xml:space="preserve" class=""><g><path d="M41.35 19.75H7.1c-2.4 0-4.35 1.95-4.35 4.35v24.28c0 1.21.49 2.29 1.27 3.08.79.79 1.88 1.28 3.08 1.28h34.25c2.4 0 4.35-1.95 4.35-4.36V24.1c0-2.4-1.95-4.35-4.35-4.35zm-15.3 29.74H22.4c-.55 0-1-.45-1-1s.45-1 1-1h3.65c.55 0 1 .45 1 1s-.45 1-1 1zm15.65-4.58H6.75V23.75H41.7zM35.289 58.77H32.36v-4.03H16.09v4.03h-2.932a1 1 0 1 0 0 2h22.13a1 1 0 1 0 0-2z" fill="#000000" opacity="1" data-original="#000000" class=""></path><path d="M60.99 7.23H42.08c-2.35 0-4.26 1.91-4.26 4.26v6.26h3.53c1.95 0 3.696.886 4.862 2.275H59.58a1 1 0 1 1 0 2H47.344c.227.651.356 1.348.356 2.075v2.621h11.88a1 1 0 1 1 0 2H47.7v4.697h11.88a1 1 0 1 1 0 2H47.7V48.38c0 3.51-2.85 6.36-6.35 6.36h-3.53v.77c0 2.35 1.91 4.26 4.26 4.26h18.91c2.35 0 4.26-1.91 4.26-4.26V11.49c0-2.35-1.91-4.26-4.26-4.26zm-9.452 43.804a3.48 3.48 0 0 1-3.482-3.474c0-1.923 1.559-3.483 3.482-3.483s3.475 1.56 3.475 3.483a3.474 3.474 0 0 1-3.475 3.474zm8.042-35.706H43.869a1 1 0 1 1 0-2h15.71a1 1 0 1 1 0 2z" fill="#000000" opacity="1" data-original="#000000" class=""></path></g></svg>