<svg xmlns="http://www.w3.org/2000/svg" version="1.1" xmlns:xlink="http://www.w3.org/1999/xlink" width="512" height="512" x="0" y="0" viewBox="0 0 24 24" style="enable-background:new 0 0 512 512" xml:space="preserve" fill-rule="evenodd"><g><path d="M12 2C6.481 2 2 6.481 2 12s4.481 10 10 10 10-4.481 10-10S17.519 2 12 2zm0 2c4.415 0 8 3.585 8 8s-3.585 8-8 8-8-3.585-8-8 3.585-8 8-8zm-1 7V7a1 1 0 0 1 2 0v4h4a1 1 0 0 1 0 2h-4v4a1 1 0 0 1-2 0v-4H7a1 1 0 0 1 0-2z" fill="#000000" opacity="1" data-original="#000000"></path></g></svg>